<mxfile host="65bd71144e">
    <diagram id="1rftnht3yMh0IZzJSGRs" name="Page-1">
        <mxGraphModel dx="640" dy="548" grid="1" gridSize="10" guides="1" tooltips="1" connect="1" arrows="1" fold="1" page="1" pageScale="1" pageWidth="850" pageHeight="1100" math="0" shadow="0">
            <root>
                <mxCell id="0"/>
                <mxCell id="1" parent="0"/>
                <mxCell id="8" style="edgeStyle=none;html=1;endArrow=open;endFill=0;fillColor=#1ba1e2;strokeColor=#006EAF;fontColor=#006EAF;startArrow=none;startFill=0;fontStyle=0" parent="1" source="2" target="9" edge="1">
                    <mxGeometry relative="1" as="geometry"/>
                </mxCell>
                <mxCell id="2" value="«service»&lt;br&gt;&lt;span&gt;Application Logic&lt;/span&gt;" style="html=1;dropTarget=0;fillColor=none;fontColor=#006EAF;strokeColor=#006EAF;fontStyle=0" parent="1" vertex="1">
                    <mxGeometry x="120" y="200" width="160" height="80" as="geometry"/>
                </mxCell>
                <mxCell id="3" value="" style="shape=module;jettyWidth=8;jettyHeight=4;fillColor=#1ba1e2;fontColor=#006EAF;strokeColor=#006EAF;fontStyle=0" parent="2" vertex="1">
                    <mxGeometry x="1" width="20" height="20" relative="1" as="geometry">
                        <mxPoint x="-27" y="7" as="offset"/>
                    </mxGeometry>
                </mxCell>
                <mxCell id="4" value="Processing&lt;br&gt;Unit" style="verticalAlign=middle;align=center;shape=cube;size=10;direction=south;fontStyle=0;html=1;boundedLbl=1;spacingLeft=5;fontColor=#006EAF;fillColor=none;strokeColor=#006EAF;" parent="1" vertex="1">
                    <mxGeometry x="330" y="40" width="120" height="120" as="geometry"/>
                </mxCell>
                <mxCell id="21" style="edgeStyle=none;html=1;endArrow=open;endFill=0;fillColor=#1ba1e2;strokeColor=#006EAF;fontColor=#006EAF;fontStyle=0" parent="1" source="6" target="2" edge="1">
                    <mxGeometry relative="1" as="geometry">
                        <mxPoint x="410" y="690" as="targetPoint"/>
                    </mxGeometry>
                </mxCell>
                <mxCell id="6" value="«proxy»&lt;br&gt;&lt;span&gt;Messaging Grid&lt;/span&gt;" style="html=1;dropTarget=0;fillColor=none;fontColor=#006EAF;strokeColor=#006EAF;fontStyle=0" parent="1" vertex="1">
                    <mxGeometry x="120" y="480" width="160" height="80" as="geometry"/>
                </mxCell>
                <mxCell id="7" value="" style="shape=module;jettyWidth=8;jettyHeight=4;fillColor=#1ba1e2;fontColor=#006EAF;strokeColor=#006EAF;fontStyle=0" parent="6" vertex="1">
                    <mxGeometry x="1" width="20" height="20" relative="1" as="geometry">
                        <mxPoint x="-27" y="7" as="offset"/>
                    </mxGeometry>
                </mxCell>
                <mxCell id="22" style="edgeStyle=none;html=1;endArrow=open;endFill=0;fillColor=#1ba1e2;strokeColor=#006EAF;fontColor=#006EAF;fontStyle=0" parent="1" source="9" target="11" edge="1">
                    <mxGeometry relative="1" as="geometry"/>
                </mxCell>
                <mxCell id="9" value="«cache»&lt;br&gt;&lt;span&gt;In Memory Data Grid&lt;/span&gt;" style="html=1;dropTarget=0;fillColor=none;fontColor=#006EAF;strokeColor=#006EAF;fontStyle=0" parent="1" vertex="1">
                    <mxGeometry x="310" y="200" width="160" height="80" as="geometry"/>
                </mxCell>
                <mxCell id="10" value="" style="shape=module;jettyWidth=8;jettyHeight=4;fillColor=#1ba1e2;fontColor=#006EAF;strokeColor=#006EAF;fontStyle=0" parent="9" vertex="1">
                    <mxGeometry x="1" width="20" height="20" relative="1" as="geometry">
                        <mxPoint x="-27" y="7" as="offset"/>
                    </mxGeometry>
                </mxCell>
                <mxCell id="13" value="«agent»&lt;br&gt;&lt;span&gt;Deployment Manager&lt;/span&gt;" style="html=1;dropTarget=0;fillColor=none;fontColor=#006EAF;strokeColor=#006EAF;fontStyle=0" parent="1" vertex="1">
                    <mxGeometry x="720" y="480" width="160" height="80" as="geometry"/>
                </mxCell>
                <mxCell id="14" value="" style="shape=module;jettyWidth=8;jettyHeight=4;fillColor=#1ba1e2;fontColor=#006EAF;strokeColor=#006EAF;fontStyle=0" parent="13" vertex="1">
                    <mxGeometry x="1" width="20" height="20" relative="1" as="geometry">
                        <mxPoint x="-27" y="7" as="offset"/>
                    </mxGeometry>
                </mxCell>
                <mxCell id="26" value="&lt;span style=&quot;font-size: 12px;&quot;&gt;«deploy»&lt;/span&gt;" style="endArrow=open;endSize=12;dashed=1;html=1;fillColor=#1ba1e2;strokeColor=#006EAF;fontColor=#006EAF;labelBackgroundColor=none;fontStyle=0" parent="1" source="2" target="4" edge="1">
                    <mxGeometry width="160" relative="1" as="geometry">
                        <mxPoint x="330" y="270" as="sourcePoint"/>
                        <mxPoint x="490" y="270" as="targetPoint"/>
                    </mxGeometry>
                </mxCell>
                <mxCell id="28" value="&lt;span style=&quot;font-size: 12px;&quot;&gt;«deploy»&lt;/span&gt;" style="endArrow=open;endSize=12;dashed=1;html=1;fillColor=#1ba1e2;strokeColor=#006EAF;fontColor=#006EAF;labelBackgroundColor=none;fontStyle=0" parent="1" source="9" target="4" edge="1">
                    <mxGeometry width="160" relative="1" as="geometry">
                        <mxPoint x="280" y="360.52631578947376" as="sourcePoint"/>
                        <mxPoint x="520" y="452.1052631578948" as="targetPoint"/>
                    </mxGeometry>
                </mxCell>
                <mxCell id="29" value="&lt;span style=&quot;font-size: 12px;&quot;&gt;«deploy»&lt;/span&gt;" style="endArrow=open;endSize=12;dashed=1;html=1;fillColor=#1ba1e2;strokeColor=#006EAF;fontColor=#006EAF;labelBackgroundColor=none;fontStyle=0" parent="1" source="11" target="4" edge="1">
                    <mxGeometry width="160" relative="1" as="geometry">
                        <mxPoint x="280" y="455.2631578947369" as="sourcePoint"/>
                        <mxPoint x="520" y="471.0526315789474" as="targetPoint"/>
                    </mxGeometry>
                </mxCell>
                <mxCell id="30" value="&lt;span style=&quot;font-size: 12px;&quot;&gt;«deploy»&lt;/span&gt;" style="endArrow=open;endSize=12;dashed=1;html=1;fillColor=#1ba1e2;strokeColor=#006EAF;fontColor=#006EAF;labelBackgroundColor=none;startArrow=none;fontStyle=0" parent="1" source="11" target="4" edge="1">
                    <mxGeometry width="160" relative="1" as="geometry">
                        <mxPoint x="280" y="550" as="sourcePoint"/>
                        <mxPoint x="520" y="490" as="targetPoint"/>
                    </mxGeometry>
                </mxCell>
                <mxCell id="11" value="«driver»&lt;br&gt;&lt;span&gt;Data Replication Engine&lt;/span&gt;" style="html=1;dropTarget=0;fillColor=none;fontColor=#006EAF;strokeColor=#006EAF;fontStyle=0" parent="1" vertex="1">
                    <mxGeometry x="510" y="200" width="160" height="80" as="geometry"/>
                </mxCell>
                <mxCell id="12" value="" style="shape=module;jettyWidth=8;jettyHeight=4;fillColor=#1ba1e2;fontColor=#006EAF;strokeColor=#006EAF;fontStyle=0" parent="11" vertex="1">
                    <mxGeometry x="1" width="20" height="20" relative="1" as="geometry">
                        <mxPoint x="-27" y="7" as="offset"/>
                    </mxGeometry>
                </mxCell>
                <mxCell id="32" value="Virtualized&lt;br&gt;Middleware" style="verticalAlign=middle;align=center;shape=cube;size=10;direction=south;fontStyle=0;html=1;boundedLbl=1;spacingLeft=5;fontColor=#006EAF;fillColor=none;strokeColor=#006EAF;" parent="1" vertex="1">
                    <mxGeometry x="436" y="320" width="120" height="120" as="geometry"/>
                </mxCell>
                <mxCell id="33" value="«cache»&lt;br&gt;&lt;span&gt;In Memory Data Grid&lt;/span&gt;" style="html=1;dropTarget=0;fillColor=none;fontColor=#006EAF;strokeColor=#006EAF;fontStyle=0" parent="1" vertex="1">
                    <mxGeometry x="320" y="480" width="160" height="80" as="geometry"/>
                </mxCell>
                <mxCell id="34" value="" style="shape=module;jettyWidth=8;jettyHeight=4;fillColor=#1ba1e2;fontColor=#006EAF;strokeColor=#006EAF;fontStyle=0" parent="33" vertex="1">
                    <mxGeometry x="1" width="20" height="20" relative="1" as="geometry">
                        <mxPoint x="-27" y="7" as="offset"/>
                    </mxGeometry>
                </mxCell>
                <mxCell id="35" value="Optional" style="shape=note;size=15;align=left;spacingLeft=10;html=1;whiteSpace=wrap;fillColor=none;fontColor=#006EAF;strokeColor=#006EAF;fontStyle=0" parent="1" vertex="1">
                    <mxGeometry x="456" y="580" width="80" height="40" as="geometry"/>
                </mxCell>
                <mxCell id="37" value="" style="edgeStyle=none;endArrow=none;dashed=1;html=1;fillColor=#1ba1e2;strokeColor=#006EAF;fontStyle=0" parent="1" source="35" target="33" edge="1">
                    <mxGeometry x="1" relative="1" as="geometry">
                        <mxPoint x="320" y="350" as="targetPoint"/>
                    </mxGeometry>
                </mxCell>
                <mxCell id="38" value="«orchestrator»&lt;br&gt;&lt;span&gt;Processing Grid&lt;/span&gt;" style="html=1;dropTarget=0;fillColor=none;fontColor=#006EAF;strokeColor=#006EAF;fontStyle=0" parent="1" vertex="1">
                    <mxGeometry x="520" y="480" width="160" height="80" as="geometry"/>
                </mxCell>
                <mxCell id="39" value="" style="shape=module;jettyWidth=8;jettyHeight=4;fillColor=#1ba1e2;fontColor=#006EAF;strokeColor=#006EAF;fontStyle=0" parent="38" vertex="1">
                    <mxGeometry x="1" width="20" height="20" relative="1" as="geometry">
                        <mxPoint x="-27" y="7" as="offset"/>
                    </mxGeometry>
                </mxCell>
                <mxCell id="40" value="" style="edgeStyle=none;endArrow=none;dashed=1;html=1;fillColor=#1ba1e2;strokeColor=#006EAF;fontStyle=0" parent="1" source="35" target="38" edge="1">
                    <mxGeometry x="1" relative="1" as="geometry">
                        <mxPoint x="410" y="570" as="targetPoint"/>
                        <mxPoint x="410" y="600" as="sourcePoint"/>
                    </mxGeometry>
                </mxCell>
                <mxCell id="41" value="&lt;span style=&quot;font-size: 12px;&quot;&gt;«deploy»&lt;/span&gt;" style="endArrow=open;endSize=12;dashed=1;html=1;fillColor=#1ba1e2;strokeColor=#006EAF;fontColor=#006EAF;labelBackgroundColor=none;fontStyle=0" parent="1" source="6" target="32" edge="1">
                    <mxGeometry width="160" relative="1" as="geometry">
                        <mxPoint x="264.28571428571445" y="210" as="sourcePoint"/>
                        <mxPoint x="340" y="154.2105263157896" as="targetPoint"/>
                    </mxGeometry>
                </mxCell>
                <mxCell id="42" value="&lt;span style=&quot;font-size: 12px;&quot;&gt;«deploy»&lt;/span&gt;" style="endArrow=open;endSize=12;dashed=1;html=1;fillColor=#1ba1e2;strokeColor=#006EAF;fontColor=#006EAF;labelBackgroundColor=none;fontStyle=0" parent="1" source="33" target="32" edge="1">
                    <mxGeometry width="160" relative="1" as="geometry">
                        <mxPoint x="290" y="492.1621621621621" as="sourcePoint"/>
                        <mxPoint x="446" y="418.37837837837833" as="targetPoint"/>
                    </mxGeometry>
                </mxCell>
                <mxCell id="43" value="&lt;span style=&quot;font-size: 12px;&quot;&gt;«deploy»&lt;/span&gt;" style="endArrow=open;endSize=12;dashed=1;html=1;fillColor=#1ba1e2;strokeColor=#006EAF;fontColor=#006EAF;labelBackgroundColor=none;fontStyle=0" parent="1" source="38" target="32" edge="1">
                    <mxGeometry width="160" relative="1" as="geometry">
                        <mxPoint x="437.42857142857156" y="490" as="sourcePoint"/>
                        <mxPoint x="464.8571428571429" y="450" as="targetPoint"/>
                    </mxGeometry>
                </mxCell>
                <mxCell id="44" value="&lt;span style=&quot;font-size: 12px;&quot;&gt;«deploy»&lt;/span&gt;" style="endArrow=open;endSize=12;dashed=1;html=1;fillColor=#1ba1e2;strokeColor=#006EAF;fontColor=#006EAF;labelBackgroundColor=none;fontStyle=0" parent="1" source="13" target="32" edge="1">
                    <mxGeometry width="160" relative="1" as="geometry">
                        <mxPoint x="580.2857142857142" y="490" as="sourcePoint"/>
                        <mxPoint x="550.5714285714287" y="450" as="targetPoint"/>
                    </mxGeometry>
                </mxCell>
                <mxCell id="45" value="Processing&lt;br&gt;Unit" style="verticalAlign=middle;align=center;shape=cube;size=10;direction=south;fontStyle=0;html=1;boundedLbl=1;spacingLeft=5;fontColor=#006EAF;fillColor=none;strokeColor=#006EAF;" parent="1" vertex="1">
                    <mxGeometry x="550" y="40" width="120" height="120" as="geometry"/>
                </mxCell>
                <mxCell id="46" value="Processing&lt;br&gt;Unit" style="verticalAlign=middle;align=center;shape=cube;size=10;direction=south;fontStyle=0;html=1;boundedLbl=1;spacingLeft=5;fontColor=#006EAF;fillColor=none;strokeColor=#006EAF;" parent="1" vertex="1">
                    <mxGeometry x="120" y="40" width="120" height="120" as="geometry"/>
                </mxCell>
                <mxCell id="47" value="«queue»&lt;br&gt;&lt;span&gt;Write Data Pump&lt;/span&gt;" style="html=1;dropTarget=0;fillColor=none;fontColor=#006EAF;strokeColor=#006EAF;fontStyle=0" parent="1" vertex="1">
                    <mxGeometry x="120" y="680" width="160" height="80" as="geometry"/>
                </mxCell>
                <mxCell id="48" value="" style="shape=module;jettyWidth=8;jettyHeight=4;fillColor=#1ba1e2;fontColor=#006EAF;strokeColor=#006EAF;fontStyle=0" parent="47" vertex="1">
                    <mxGeometry x="1" width="20" height="20" relative="1" as="geometry">
                        <mxPoint x="-27" y="7" as="offset"/>
                    </mxGeometry>
                </mxCell>
                <mxCell id="49" value="«data writer»&lt;br&gt;&lt;span&gt;Data Writer&lt;/span&gt;" style="html=1;dropTarget=0;fillColor=none;fontColor=#006EAF;strokeColor=#006EAF;fontStyle=0" parent="1" vertex="1">
                    <mxGeometry x="120" y="840" width="160" height="80" as="geometry"/>
                </mxCell>
                <mxCell id="50" value="" style="shape=module;jettyWidth=8;jettyHeight=4;fillColor=#1ba1e2;fontColor=#006EAF;strokeColor=#006EAF;fontStyle=0" parent="49" vertex="1">
                    <mxGeometry x="1" width="20" height="20" relative="1" as="geometry">
                        <mxPoint x="-27" y="7" as="offset"/>
                    </mxGeometry>
                </mxCell>
                <mxCell id="51" value="«data reader»&lt;br&gt;&lt;span&gt;Data Reader&lt;/span&gt;" style="html=1;dropTarget=0;fillColor=none;fontColor=#006EAF;strokeColor=#006EAF;fontStyle=0" parent="1" vertex="1">
                    <mxGeometry x="425" y="840" width="160" height="80" as="geometry"/>
                </mxCell>
                <mxCell id="52" value="" style="shape=module;jettyWidth=8;jettyHeight=4;fillColor=#1ba1e2;fontColor=#006EAF;strokeColor=#006EAF;fontStyle=0" parent="51" vertex="1">
                    <mxGeometry x="1" width="20" height="20" relative="1" as="geometry">
                        <mxPoint x="-27" y="7" as="offset"/>
                    </mxGeometry>
                </mxCell>
                <mxCell id="53" value="«queue»&lt;br&gt;&lt;span&gt;Read Requests&lt;/span&gt;" style="html=1;dropTarget=0;fillColor=none;fontColor=#006EAF;strokeColor=#006EAF;fontStyle=0" parent="1" vertex="1">
                    <mxGeometry x="320" y="680" width="160" height="80" as="geometry"/>
                </mxCell>
                <mxCell id="54" value="" style="shape=module;jettyWidth=8;jettyHeight=4;fillColor=#1ba1e2;fontColor=#006EAF;strokeColor=#006EAF;fontStyle=0" parent="53" vertex="1">
                    <mxGeometry x="1" width="20" height="20" relative="1" as="geometry">
                        <mxPoint x="-27" y="7" as="offset"/>
                    </mxGeometry>
                </mxCell>
                <mxCell id="55" value="«queue»&lt;br&gt;&lt;span&gt;Reverse Data Pump&lt;/span&gt;" style="html=1;dropTarget=0;fillColor=none;fontColor=#006EAF;strokeColor=#006EAF;fontStyle=0" parent="1" vertex="1">
                    <mxGeometry x="520" y="680" width="160" height="80" as="geometry"/>
                </mxCell>
                <mxCell id="56" value="" style="shape=module;jettyWidth=8;jettyHeight=4;fillColor=#1ba1e2;fontColor=#006EAF;strokeColor=#006EAF;fontStyle=0" parent="55" vertex="1">
                    <mxGeometry x="1" width="20" height="20" relative="1" as="geometry">
                        <mxPoint x="-27" y="7" as="offset"/>
                    </mxGeometry>
                </mxCell>
                <mxCell id="57" value="read request" style="edgeStyle=none;html=1;endArrow=open;endFill=0;fillColor=#1ba1e2;strokeColor=#006EAF;fontColor=#006EAF;labelBackgroundColor=none;exitX=0;exitY=0.75;exitDx=0;exitDy=0;fontStyle=0" parent="1" source="2" target="53" edge="1">
                    <mxGeometry x="0.4872" y="10" relative="1" as="geometry">
                        <mxPoint x="210" y="490" as="sourcePoint"/>
                        <mxPoint x="210" y="290" as="targetPoint"/>
                        <Array as="points">
                            <mxPoint x="80" y="260"/>
                            <mxPoint x="80" y="640"/>
                            <mxPoint x="400" y="640"/>
                        </Array>
                        <mxPoint as="offset"/>
                    </mxGeometry>
                </mxCell>
                <mxCell id="58" value="read request" style="edgeStyle=none;html=1;endArrow=open;endFill=0;fillColor=#1ba1e2;strokeColor=#006EAF;fontColor=#006EAF;labelBackgroundColor=none;fontStyle=0" parent="1" source="53" target="51" edge="1">
                    <mxGeometry x="-0.4874" y="-36" relative="1" as="geometry">
                        <mxPoint x="730" y="450" as="sourcePoint"/>
                        <mxPoint x="410" y="690" as="targetPoint"/>
                        <mxPoint y="-1" as="offset"/>
                    </mxGeometry>
                </mxCell>
                <mxCell id="59" value="read response" style="edgeStyle=none;html=1;endArrow=open;endFill=0;fillColor=#1ba1e2;strokeColor=#006EAF;fontColor=#006EAF;labelBackgroundColor=none;fontStyle=0" parent="1" source="51" target="55" edge="1">
                    <mxGeometry x="0.5213" y="-41" relative="1" as="geometry">
                        <mxPoint x="436.25" y="770" as="sourcePoint"/>
                        <mxPoint x="488.75" y="850" as="targetPoint"/>
                        <mxPoint as="offset"/>
                    </mxGeometry>
                </mxCell>
                <mxCell id="60" value="read response" style="edgeStyle=none;html=1;endArrow=open;endFill=0;fillColor=#1ba1e2;strokeColor=#006EAF;fontColor=#006EAF;labelBackgroundColor=none;fontStyle=0" parent="1" source="55" target="9" edge="1">
                    <mxGeometry x="-0.68" y="10" relative="1" as="geometry">
                        <mxPoint x="-61.25" y="650" as="sourcePoint"/>
                        <mxPoint x="-13.75" y="570" as="targetPoint"/>
                        <Array as="points">
                            <mxPoint x="600" y="640"/>
                            <mxPoint x="920" y="640"/>
                            <mxPoint x="920" y="300"/>
                            <mxPoint x="390" y="300"/>
                        </Array>
                        <mxPoint as="offset"/>
                    </mxGeometry>
                </mxCell>
                <mxCell id="61" value="write request" style="edgeStyle=none;html=1;endArrow=open;endFill=0;fillColor=#1ba1e2;strokeColor=#006EAF;fontColor=#006EAF;labelBackgroundColor=none;exitX=0;exitY=0.25;exitDx=0;exitDy=0;fontStyle=0" parent="1" source="2" target="47" edge="1">
                    <mxGeometry x="-0.8788" y="-10" relative="1" as="geometry">
                        <mxPoint x="130" y="270" as="sourcePoint"/>
                        <mxPoint x="-190" y="490" as="targetPoint"/>
                        <Array as="points">
                            <mxPoint x="40" y="220"/>
                            <mxPoint x="40" y="720"/>
                        </Array>
                        <mxPoint as="offset"/>
                    </mxGeometry>
                </mxCell>
                <mxCell id="62" value="write request" style="edgeStyle=none;html=1;endArrow=open;endFill=0;fillColor=#1ba1e2;strokeColor=#006EAF;fontColor=#006EAF;labelBackgroundColor=none;fontStyle=0" parent="1" source="47" target="49" edge="1">
                    <mxGeometry y="-40" relative="1" as="geometry">
                        <mxPoint x="436.25" y="770" as="sourcePoint"/>
                        <mxPoint x="488.75" y="850" as="targetPoint"/>
                        <mxPoint as="offset"/>
                    </mxGeometry>
                </mxCell>
                <mxCell id="63" value="Database" style="strokeWidth=1;html=1;shape=mxgraph.flowchart.database;whiteSpace=wrap;fontColor=#006EAF;fillColor=none;strokeColor=#006EAF;fontStyle=0" parent="1" vertex="1">
                    <mxGeometry x="320" y="960" width="80" height="80" as="geometry"/>
                </mxCell>
                <mxCell id="64" value="" style="edgeStyle=none;html=1;endArrow=open;endFill=0;fillColor=#1ba1e2;strokeColor=#006EAF;fontColor=#006EAF;labelBackgroundColor=none;fontStyle=0" parent="1" source="49" target="63" edge="1">
                    <mxGeometry y="-40" relative="1" as="geometry">
                        <mxPoint x="210" y="770" as="sourcePoint"/>
                        <mxPoint x="210" y="850" as="targetPoint"/>
                        <mxPoint as="offset"/>
                    </mxGeometry>
                </mxCell>
                <mxCell id="66" value="" style="edgeStyle=none;html=1;endArrow=open;endFill=0;fillColor=#1ba1e2;strokeColor=#006EAF;fontColor=#006EAF;labelBackgroundColor=none;fontStyle=0" parent="1" source="63" target="51" edge="1">
                    <mxGeometry y="-40" relative="1" as="geometry">
                        <mxPoint x="250" y="930" as="sourcePoint"/>
                        <mxPoint x="330" y="1010" as="targetPoint"/>
                        <mxPoint as="offset"/>
                    </mxGeometry>
                </mxCell>
            </root>
        </mxGraphModel>
    </diagram>
</mxfile>